# xmcd
#
# Track frame offsets:
#	150
#	9160
#	25762
#	49852
#	65588
#	77876
#	97366
#	117179
#	131587
#	151944
#	165604
#	183371
#	198121
#
# Disc length: 2843 seconds
#
# Revision: 1
# Processed by: cddbd v1.5.2PL0 Copyright (c) Steve Scherf et al.
# Submitted via: audiograbber 1.83.01
#
DISCID=a30b190d
DTITLE=Various Artist - Country Music Messe 2015 CD2
DYEAR=2015
DGENRE=
TTITLE0=Eleven Strings - Till The End Of The World Rolls Round
TTITLE1=The Mark Merritt Band - Sand Between My Toes
TTITLE2=Jamestown Ferry - It?s All Over Now, Baby Blue
TTITLE3=KukuruzA - Leto (Summer)
TTITLE4=Pitcher Boys - Pitcher Boy Party
TTITLE5=Reno Blue - Das letzte Rodeo
TTITLE6=Wild Bunch - Im Coming Home
TTITLE7=East Of Memphis - Highway 59
TTITLE8=Memphis Sky - Caught In A Snowstorm
TTITLE9=Rebel Bunch - Back In My Boots
TTITLE10=Mike O`Donoghue - New Horizon
TTITLE11=The Swedish Man - That s The Time
TTITLE12=The Cockroach Killers - Turn It On, Turn It Up, Turn It Loose
EXTD=
EXTT0=
EXTT1=
EXTT2=
EXTT3=
EXTT4=
EXTT5=
EXTT6=
EXTT7=
EXTT8=
EXTT9=
EXTT10=
EXTT11=
EXTT12=
PLAYORDER=
